PathFileType	4	(x/y/z)	S01_M20_T12.trc
DataRate	CameraRate	NumFrames	NumMarkers	Units	OrigDataRate	OrigDataStartFrame	OrigNumFrames
240	240	8	51	mm	240	109	432
Frame#	Time	Sternum			R.Acromium			L.Acromium			Top.Head			R.ASIS			L.ASIS			R.PSIS			L.PSIS			R.Great.Tro			L.Great.Tro			R.Iliac.Crest			L.Iliac.Crest			V.Sacral			R.Thigh.Upper.Post			R.Thigh.Lower.Ant			R.Thigh.Lower.Post			R.Thigh.Upper.Ant			R.Knee.Lat			R.Knee.Med			R.Shank.Upper.Post			R.Shank.Lower.Ant			R.Shank.Lower.Post			R.Shank.Upper.Ant			R.Ankle.Lat			R.Ankle.Med			R.Heel.Upper			R.Heel.Med			R.Heel.Lat			R.Toe.Lat			R.Toe.Med			R.Toe.Tip			L.Thigh.Upper.Post			L.Thigh.Lower.Ant			L.Thigh.Lower.Post			L.Thigh.Upper.Ant			L.Knee.Lat			L.Knee.Med			L.Shank.Upper.Post			L.Shank.Lower.Ant			L.Shank.Lower.Post			L.Shank.Upper.Ant			L.Ankle.Lat			L.Ankle.Med			L.Heel.Upper			L.Heel.Med			L.Heel.Lat			L.Toe.Lat			L.Toe.Med			L.Toe.Tip			Cervical.Spine			Back			
		X1	Y1	Z1	X2	Y2	Z2	X3	Y3	Z3	X4	Y4	Z4	X5	Y5	Z5	X6	Y6	Z6	X7	Y7	Z7	X8	Y8	Z8	X9	Y9	Z9	X10	Y10	Z10	X11	Y11	Z11	X12	Y12	Z12	X13	Y13	Z13	X14	Y14	Z14	X15	Y15	Z15	X16	Y16	Z16	X17	Y17	Z17	X18	Y18	Z18	X19	Y19	Z19	X20	Y20	Z20	X21	Y21	Z21	X22	Y22	Z22	X23	Y23	Z23	X24	Y24	Z24	X25	Y25	Z25	X26	Y26	Z26	X27	Y27	Z27	X28	Y28	Z28	X29	Y29	Z29	X30	Y30	Z30	X31	Y31	Z31	X32	Y32	Z32	X33	Y33	Z33	X34	Y34	Z34	X35	Y35	Z35	X36	Y36	Z36	X37	Y37	Z37	X38	Y38	Z38	X39	Y39	Z39	X40	Y40	Z40	X41	Y41	Z41	X42	Y42	Z42	X43	Y43	Z43	X44	Y44	Z44	X45	Y45	Z45	X46	Y46	Z46	X47	Y47	Z47	X48	Y48	Z48	X49	Y49	Z49	X50	Y50	Z50	X51	Y51	Z51	

109	0.45	-742.11	1235.1	284.8	-844.72	1487.6	465.81	-867.67	1506.8	137.36	-771.49	1803.6	297.95	-785.77	991.48	433.35	-795.26	984.93	166.45	-1026.7	1032	356.57	-1035.6	1038.3	254.53	-853.96	943.2	523.78	-917.6	947.61	96.316	-873.62	1086.7	505.18	-909.91	1069.1	98.583	-1047.2	1000.9	302.28	-736.62	658.96	495.16	-644.63	628.96	457.77	-695.12	583.09	469.5	-683.88	707.66	481.08	-648.62	541.3	463.1	-650.28	541.71	317.14	-638.74	372.98	482.4	-549.22	321.92	442.09	-614.54	307.19	470.68	-577.84	387.59	459.42	-526.64	119.64	433.78	-497.91	143.6	343.07	-567.93	58.428	370.81	-536.66	42.932	343.44	-544.14	37.982	407.75	-380.46	124.35	476.15	-350.62	149.11	355.16	-312.55	199.57	412.89	-1033.9	696.75	129.24	-972.34	602.82	125.21	-1049.7	607.87	145.41	-966.37	696.89	105.88	-1035.1	511.06	133.33	-1001.9	503.62	275.29	-1140.3	398.05	122.99	-1115.8	292.38	147.52	-1169.2	325.35	128.79	-1086.1	363.39	136.4	-1261.1	127.4	174.65	-1232.4	134.67	271.95	-1339.4	107.52	221.48	-1331	80.373	254.11	-1333.8	81.225	191.97	-1126.5	39.442	158.23	-1103.2	43.934	280.04	-1038.2	46.69	230.89	-935.7	1560.3	308.65	-1042.1	1250.6	320.73
110	0.45417	-736.03	1234.3	285.43	-838.57	1486.4	467.16	-861.89	1506.1	138.71	-765.56	1802.7	299.61	-779.06	990.45	433.51	-789.35	984.04	166.51	-1020.2	1031	357.42	-1029.5	1037.3	255.41	-846.92	942.12	524.02	-912.03	946.83	96.785	-866.96	1085.4	505.8	-904.24	1068.3	99.13	-1040.9	999.85	303.19	-730.29	657.75	494.9	-638.47	627.42	457.39	-689.11	581.74	469.17	-677.4	706.26	480.82	-642.68	539.78	462.64	-644.86	540.18	316.84	-633.83	371.49	482.04	-544.91	319.68	441.31	-610.19	305.49	470.28	-572.94	385.6	458.69	-524.02	117.53	433.29	-495.43	140.78	342.35	-566.3	57.205	370.57	-535.42	41.109	343.16	-542.68	36.568	407.52	-377.82	120.73	475.06	-348.15	144.88	353.89	-309.27	194.96	411.39	-1028.4	696.13	129.63	-966.89	602.17	125.13	-1044.2	607.23	145.68	-960.84	696.28	106.06	-1029.8	510.46	133.26	-995.99	502.66	275.13	-1136	398.55	122.99	-1112.6	292.61	147.33	-1165.7	326.18	128.76	-1082.2	363.3	136.25	-1259.9	129.08	174.52	-1230.9	136.18	271.76	-1338.4	110.25	221.43	-1330.1	83.111	254.14	-1333	83.752	192.01	-1126.4	39.495	158.25	-1103	43.944	280.12	-1038	46.401	230.89	-929.79	1559.3	310.18	-1036	1249.5	321.69
111	0.45833	-729.91	1233.5	286.09	-832.39	1485.1	468.53	-856.1	1505.5	140.09	-759.62	1801.8	301.29	-772.3	989.48	433.68	-783.38	983.21	166.57	-1013.7	1030.1	358.29	-1023.4	1036.4	256.3	-839.83	941.08	524.28	-906.4	946.08	97.27	-860.2	1084.2	506.44	-898.53	1067.6	99.697	-1034.6	998.89	304.11	-724.05	656.56	494.64	-632.39	625.88	457.06	-683.19	580.39	468.85	-670.97	704.85	480.59	-636.81	538.29	462.19	-639.5	538.66	316.55	-628.98	370.03	481.68	-540.65	317.48	440.55	-605.89	303.82	469.88	-568.09	383.64	457.98	-521.46	115.51	432.83	-492.98	138.01	341.66	-564.77	56.188	370.35	-534.32	39.45	342.89	-541.37	35.333	407.31	-375.29	117.04	474.04	-345.73	140.59	352.71	-306.01	190.21	409.99	-1022.7	695.51	130.01	-961.3	601.54	125.01	-1038.5	606.58	145.93	-955.18	695.69	106.22	-1024.3	509.87	133.16	-989.9	501.7	274.91	-1131.5	399.09	122.96	-1109.4	292.89	147.12	-1162.1	327.06	128.71	-1078.1	363.24	136.08	-1258.5	130.87	174.37	-1229.2	137.79	271.55	-1337.2	113.15	221.36	-1329.1	86.031	254.14	-1332.1	86.453	192.05	-1126.3	39.554	158.26	-1102.8	43.964	280.21	-1037.8	46.111	230.88	-923.85	1558.4	311.75	-1029.8	1248.5	322.68
112	0.4625	-723.74	1232.7	286.75	-826.19	1484	469.94	-850.3	1505	141.49	-753.69	1801.1	303	-765.5	988.57	433.86	-777.36	982.46	166.65	-1007.2	1029.2	359.17	-1017.2	1035.5	257.2	-832.69	940.09	524.53	-900.7	945.36	97.769	-853.35	1083	507.09	-892.78	1066.9	100.28	-1028.1	997.97	305.06	-717.89	655.39	494.37	-626.38	624.34	456.77	-677.37	579.06	468.54	-664.6	703.46	480.41	-631.01	536.82	461.77	-634.21	537.19	316.29	-624.16	368.62	481.33	-536.42	315.35	439.83	-601.63	302.22	469.5	-563.29	381.75	457.29	-518.94	113.58	432.42	-490.52	135.32	341.02	-563.32	55.395	370.14	-533.32	37.975	342.65	-540.17	34.292	407.12	-372.84	113.31	473.08	-343.35	136.25	351.63	-302.76	185.34	408.71	-1017	694.89	130.4	-955.56	600.93	124.85	-1032.7	605.93	146.17	-949.39	695.11	106.38	-1018.7	509.28	133.04	-983.61	500.72	274.65	-1126.9	399.68	122.91	-1105.9	293.22	146.87	-1158.3	328.01	128.64	-1073.9	363.21	135.88	-1257	132.77	174.2	-1227.3	139.48	271.3	-1335.8	116.23	221.28	-1328	89.139	254.14	-1331.1	89.336	192.07	-1126.2	39.619	158.28	-1102.6	43.995	280.29	-1037.7	45.816	230.87	-917.9	1557.6	313.36	-1023.6	1247.5	323.69
113	0.46667	-717.53	1232.1	287.43	-819.96	1482.9	471.37	-844.5	1504.5	142.92	-747.76	1800.4	304.72	-758.68	987.73	434.05	-771.3	981.79	166.74	-1000.6	1028.4	360.08	-1010.9	1034.7	258.12	-825.5	939.16	524.8	-894.94	944.69	98.28	-846.4	1081.9	507.77	-886.98	1066.4	100.89	-1021.7	997.12	306.02	-711.81	654.26	494.12	-620.44	622.83	456.52	-671.63	577.76	468.25	-658.29	702.09	480.28	-625.27	535.41	461.39	-628.99	535.77	316.06	-619.38	367.28	480.99	-532.21	313.29	439.14	-597.4	300.68	469.12	-558.52	379.93	456.65	-516.43	111.78	432.04	-488.04	132.73	340.44	-561.92	54.832	369.95	-532.4	36.698	342.44	-539.06	33.452	406.95	-370.47	109.55	472.21	-340.98	131.9	350.65	-299.49	180.37	407.55	-1011	694.27	130.78	-949.67	600.34	124.66	-1026.7	605.26	146.4	-943.44	694.56	106.53	-1012.8	508.69	132.88	-977.11	499.73	274.33	-1122.1	400.32	122.84	-1102.3	293.61	146.59	-1154.4	329.03	128.56	-1069.6	363.22	135.65	-1255.4	134.77	174	-1225.3	141.26	271.03	-1334.3	119.5	221.19	-1326.7	92.441	254.13	-1330	92.408	192.09	-1126	39.693	158.3	-1102.4	44.036	280.38	-1037.5	45.514	230.86	-911.94	1556.8	315.01	-1017.3	1246.6	324.74
114	0.47083	-711.27	1231.6	288.11	-813.7	1481.9	472.83	-838.69	1504.1	144.38	-741.83	1799.8	306.46	-751.83	986.96	434.25	-765.18	981.2	166.85	-994.05	1027.6	360.99	-1004.6	1033.9	259.04	-818.28	938.29	525.07	-889.11	944.05	98.802	-839.37	1080.9	508.47	-881.13	1065.9	101.51	-1015.2	996.32	307	-705.8	653.2	493.88	-614.56	621.36	456.33	-665.98	576.51	467.98	-652.05	700.77	480.19	-619.59	534.08	461.04	-623.83	534.43	315.85	-614.63	366.02	480.67	-528.01	311.34	438.5	-593.17	299.24	468.77	-553.76	378.2	456.04	-513.93	110.11	431.71	-485.52	130.26	339.9	-560.56	54.5	369.77	-531.55	35.626	342.24	-538.02	32.814	406.79	-368.17	105.78	471.43	-338.62	127.55	349.78	-296.2	175.32	406.54	-1005	693.63	131.16	-943.62	599.76	124.44	-1020.6	604.58	146.61	-937.35	694.01	106.66	-1006.8	508.11	132.69	-970.39	498.73	273.95	-1117.1	401	122.75	-1098.6	294.05	146.27	-1150.2	330.11	128.46	-1065	363.26	135.38	-1253.5	136.89	173.79	-1223.2	143.12	270.73	-1332.6	122.95	221.08	-1325.3	95.944	254.11	-1328.7	95.677	192.1	-1125.8	39.777	158.31	-1102.3	44.091	280.47	-1037.3	45.202	230.86	-905.95	1556.1	316.69	-1011.1	1245.7	325.81
115	0.475	-704.99	1231.2	288.81	-807.42	1480.9	474.32	-832.87	1503.8	145.86	-735.9	1799.3	308.21	-744.96	986.27	434.47	-759.02	980.7	166.98	-987.43	1027	361.91	-998.29	1033.2	259.97	-811.03	937.51	525.36	-883.21	943.46	99.332	-832.27	1079.9	509.18	-875.21	1065.5	102.16	-1008.6	995.59	307.99	-699.86	652.21	493.66	-608.74	619.98	456.18	-660.38	575.35	467.74	-645.85	699.53	480.16	-613.95	532.84	460.73	-618.73	533.2	315.68	-609.87	364.86	480.37	-523.81	309.51	437.91	-588.94	297.91	468.44	-549.01	376.58	455.49	-511.44	108.58	431.43	-482.96	127.94	339.43	-559.21	54.391	369.62	-530.74	34.761	342.07	-537.05	32.372	406.65	-365.92	102.02	470.75	-336.26	123.23	349.02	-292.88	170.2	405.67	-998.79	692.99	131.54	-937.4	599.19	124.18	-1014.3	603.89	146.81	-931.1	693.48	106.78	-1000.6	507.52	132.47	-963.46	497.72	273.51	-1111.9	401.73	122.62	-1094.7	294.55	145.92	-1145.9	331.26	128.34	-1060.3	363.33	135.08	-1251.5	139.11	173.56	-1220.8	145.06	270.4	-1330.6	126.59	220.96	-1323.7	99.653	254.08	-1327.3	99.15	192.11	-1125.6	39.875	158.32	-1102.1	44.162	280.57	-1037.1	44.877	230.86	-899.96	1555.4	318.4	-1004.7	1244.9	326.92
116	0.47917	-698.67	1230.8	289.51	-801.12	1480	475.83	-827.05	1503.6	147.36	-729.97	1798.9	309.98	-738.09	985.67	434.7	-752.82	980.28	167.14	-980.8	1026.4	362.83	-991.91	1032.5	260.89	-803.78	936.82	525.66	-877.23	942.9	99.868	-825.11	1079.1	509.92	-869.24	1065.1	102.81	-1002	994.94	308.98	-693.97	651.32	493.46	-602.96	618.69	456.09	-654.82	574.28	467.53	-639.7	698.38	480.18	-608.34	531.71	460.48	-613.66	532.08	315.55	-605.12	363.82	480.1	-519.59	307.82	437.38	-584.7	296.7	468.15	-544.26	375.09	454.98	-508.94	107.19	431.19	-480.36	125.77	339.03	-557.89	54.489	369.49	-529.96	34.098	341.91	-536.12	32.111	406.53	-363.73	98.278	470.16	-333.89	118.93	348.38	-289.55	165.04	404.94	-992.45	692.33	131.91	-931	598.64	123.89	-1007.8	603.18	146.98	-924.68	692.95	106.89	-994.19	506.93	132.2	-956.29	496.69	273.01	-1106.6	402.51	122.47	-1090.6	295.11	145.53	-1141.4	332.47	128.2	-1055.4	363.45	134.75	-1249.3	141.45	173.31	-1218.3	147.09	270.05	-1328.5	130.44	220.83	-1321.9	103.57	254.04	-1325.6	102.83	192.12	-1125.4	39.988	158.34	-1101.9	44.25	280.66	-1037	44.535	230.86	-893.94	1554.9	320.14	-998.41	1244.2	328.05
